# xmcd
#
# Track frame offsets:
#	150
#	18407
#	37424
#	59432
#	78750
#	90727
#	112213
#	129336
#	146176
#	168024
#
# Disc length: 2478 seconds
#
# Revision: 1
# Processed by: cddbd v1.5.2PL0 Copyright (c) Steve Scherf et al.
# Submitted via: EZCDAudioConverter 7.1.5.1
#
DISCID=8709ac0a
DTITLE=张学友 - Touch of Love
DYEAR=2000
DGENRE=
TTITLE0=Corazon de Melao (feat. Emmanuel)
TTITLE1=Lost Christmas
TTITLE2=This Time Next Year
TTITLE3=And Then She Hit Me
TTITLE4=I Got It Made
TTITLE5=Speak Without Words
TTITLE6=All I Ask
TTITLE7=For My Broken Heart (duet with Reba McEntire)
TTITLE8=Never Go Down
TTITLE9=Touch of Love
EXTD=
EXTT0=
EXTT1=
EXTT2=
EXTT3=
EXTT4=
EXTT5=
EXTT6=
EXTT7=
EXTT8=
EXTT9=
PLAYORDER=
